<svg width="817" height="849" viewBox="0 0 817 849" fill="none" xmlns="http://www.w3.org/2000/svg">
<path fill-rule="evenodd" clip-rule="evenodd" d="M263.774 874.401C182.551 901.201 123.89 1022.31 41.3192 1000.35C-35.4541 979.94 -13.2859 842.372 -70.4365 785.536C-125.672 730.605 -226.006 744.249 -276.317 684.466C-325.435 626.1 -347.388 541.271 -340.883 464.172C-334.351 386.761 -276.828 325.694 -240.315 257.792C-209.239 200 -181.022 141.415 -140.04 90.6642C-100.013 41.0972 -52.498 0.0792847 -1.78796 -37.5905C50.8843 -76.7178 107.08 -107.879 165.734 -136.478C234.873 -170.189 301.855 -234.811 377.346 -222.45C452.205 -210.193 498.992 -130.686 550.782 -73.4298C596.061 -23.373 620.734 41.4871 663.477 93.8765C708.48 149.036 789.652 176.358 810.721 245.174C831.656 313.551 795.284 386.837 774.081 455.125C755.043 516.441 712.757 566.143 692.189 626.928C668.887 695.795 696.322 788.846 644.439 838.263C592.657 887.584 507.396 863.042 437.31 869.695C379.192 875.213 319.377 856.054 263.774 874.401Z" fill="#FE853A"/>
</svg>
